<svg width="275" height="275" viewBox="0 0 275 275" fill="none" xmlns="http://www.w3.org/2000/svg">
<circle cx="137.502" cy="5.97817" r="5.97817" fill="#B7FE02"/>
<circle cx="137.502" cy="38.8571" r="5.97817" fill="#B7FE02"/>
<circle cx="137.502" cy="71.7399" r="5.97817" fill="#B7FE02"/>
<circle cx="137.502" cy="104.619" r="5.97817" fill="#B7FE02"/>
<circle cx="137.502" cy="137.498" r="5.97817" fill="#B7FE02"/>
<circle cx="137.502" cy="170.377" r="5.97817" fill="#B7FE02"/>
<circle cx="137.502" cy="203.256" r="5.97817" fill="#B7FE02"/>
<circle cx="137.502" cy="236.138" r="5.97817" fill="#B7FE02"/>
<circle cx="137.502" cy="269.017" r="5.97817" fill="#B7FE02"/>
<circle cx="44.4974" cy="44.5" r="5.97817" transform="rotate(-45 44.4974 44.5)" fill="#B7FE02"/>
<circle cx="67.7513" cy="67.75" r="5.97817" transform="rotate(-45 67.7513 67.75)" fill="#B7FE02"/>
<circle cx="90.9974" cy="90.9961" r="5.97817" transform="rotate(-45 90.9974 90.9961)" fill="#B7FE02"/>
<circle cx="114.251" cy="114.246" r="5.97817" transform="rotate(-45 114.251 114.246)" fill="#B7FE02"/>
<circle cx="137.497" cy="137.496" r="5.97817" transform="rotate(-45 137.497 137.496)" fill="#B7FE02"/>
<circle cx="160.751" cy="160.746" r="5.97817" transform="rotate(-45 160.751 160.746)" fill="#B7FE02"/>
<circle cx="183.997" cy="183.996" r="5.97817" transform="rotate(-45 183.997 183.996)" fill="#B7FE02"/>
<circle cx="207.247" cy="207.246" r="5.97817" transform="rotate(-45 207.247 207.246)" fill="#B7FE02"/>
<circle cx="230.497" cy="230.496" r="5.97817" transform="rotate(-45 230.497 230.496)" fill="#B7FE02"/>
<circle cx="5.97817" cy="137.498" r="5.97817" transform="rotate(-90 5.97817 137.498)" fill="#B7FE02"/>
<circle cx="38.861" cy="137.498" r="5.97817" transform="rotate(-90 38.861 137.498)" fill="#B7FE02"/>
<circle cx="71.736" cy="137.498" r="5.97817" transform="rotate(-90 71.736 137.498)" fill="#B7FE02"/>
<circle cx="104.619" cy="137.498" r="5.97817" transform="rotate(-90 104.619 137.498)" fill="#B7FE02"/>
<circle cx="137.502" cy="137.498" r="5.97817" transform="rotate(-90 137.502 137.498)" fill="#B7FE02"/>
<circle cx="170.377" cy="137.498" r="5.97817" transform="rotate(-90 170.377 137.498)" fill="#B7FE02"/>
<circle cx="203.259" cy="137.498" r="5.97817" transform="rotate(-90 203.259 137.498)" fill="#B7FE02"/>
<circle cx="236.138" cy="137.498" r="5.97817" transform="rotate(-90 236.138 137.498)" fill="#B7FE02"/>
<circle cx="269.021" cy="137.498" r="5.97817" transform="rotate(-90 269.021 137.498)" fill="#B7FE02"/>
<circle cx="44.5039" cy="230.495" r="5.97817" transform="rotate(-135 44.5039 230.495)" fill="#B7FE02"/>
<circle cx="67.75" cy="207.245" r="5.97817" transform="rotate(-135 67.75 207.245)" fill="#B7FE02"/>
<circle cx="91" cy="183.995" r="5.97817" transform="rotate(-135 91 183.995)" fill="#B7FE02"/>
<circle cx="114.25" cy="160.745" r="5.97817" transform="rotate(-135 114.25 160.745)" fill="#B7FE02"/>
<circle cx="137.5" cy="137.495" r="5.97817" transform="rotate(-135 137.5 137.495)" fill="#B7FE02"/>
<circle cx="160.746" cy="114.245" r="5.97817" transform="rotate(-135 160.746 114.245)" fill="#B7FE02"/>
<circle cx="184" cy="90.9948" r="5.97817" transform="rotate(-135 184 90.9948)" fill="#B7FE02"/>
<circle cx="207.246" cy="67.7487" r="5.97817" transform="rotate(-135 207.246 67.7487)" fill="#B7FE02"/>
<circle cx="230.5" cy="44.4987" r="5.97817" transform="rotate(-135 230.5 44.4987)" fill="#B7FE02"/>
</svg>
